<?xml version="1.0" encoding="utf-8"?><!-- Generator: Adobe Illustrator 26.5.0, SVG Export Plug-In . SVG Version: 6.00 Build 0)  --><svg version="1.1" id="Ebene_1" xmlns="http://www.w3.org/2000/svg" xmlns:xlink="http://www.w3.org/1999/xlink" x="0px" y="0px"	 viewBox="0 0 170 100" style="enable-background:new 0 0 170 100;" xml:space="preserve"><style type="text/css">	.st0{fill:#020203;}	.st1{fill:#333333;}	.st2{fill:#808183;}	.st3{fill:#87888A;}	.st4{fill:#9C9E9E;}	.st5{fill:#97989A;}	.st6{fill:#8B8C8E;}	.st7{fill:#929395;}	.st8{fill:#A3A4A6;}	.st9{fill:#A8A8AA;}	.st10{fill:#7B7C7F;}	.st11{fill:#656668;}	.st12{fill:#5E5E60;}	.st13{fill:#4C4B4E;}	.st14{fill:#3E3D40;}	.st15{fill:#28282A;}	.st16{fill:#B2B3B4;}	.st17{fill:#AEAFB1;}	.st18{fill:#767678;}	.st19{fill:#B6B7B8;}	.st20{fill:#5A595B;}	.st21{fill:#707273;}	.st22{fill:#BBBCBD;}	.st23{fill:#C7C7C8;}	.st24{fill:#C1C2C2;}	.st25{fill:#FFFFFF;}	.st26{fill:none;stroke:#87888A;stroke-width:0.543;stroke-miterlimit:10;}	.st27{clip-path:url(#SVGID_00000128451592219270199920000007088780242409157286_);}	.st28{stroke:#FFFFFF;stroke-width:0.158;}	.st29{clip-path:url(#SVGID_00000001624626039486751700000017692546532799423670_);}	.st30{clip-path:url(#SVGID_00000074412535067068466850000002324737819620494991_);}	.st31{fill:#FFFFFF;stroke:#FFFFFF;stroke-width:9.100000e-02;stroke-miterlimit:3.864;}	.st32{fill:#1E1E1C;}	.st33{fill:#273244;}	.st34{fill:#706F6F;}	.st35{fill:#FFFFFF;stroke:#000000;stroke-miterlimit:10;}	.st36{fill-rule:evenodd;clip-rule:evenodd;}</style><g>	<path d="M58.7,32.7h10.7c0.1,0.6,0.1,0.9,0.1,1.2c0,0.9-0.2,1.3-0.7,2.1c-0.5,0.7-0.9,1.2-2.8,3.3l-1.1,1.3c-1.4,1.6-2,2.2-2.6,3.1		h7.3v2.7H58.1c0-0.6-0.1-0.9-0.1-1.2c0-0.9,0.2-1.3,0.7-2.1c0.5-0.7,0.9-1.2,2.8-3.3l1.1-1.3c1.4-1.6,1.9-2.2,2.5-3l0.1-0.2h-6.6		V32.7z"/>	<path d="M76.4,40.5c-0.1-1.1-0.7-1.7-1.6-1.7c-1,0-1.7,0.6-1.9,1.7H76.4z M72.9,42.6c0.1,1.2,1,1.8,2.6,1.8c1.2,0,2.3-0.3,3.2-0.9		v2.3c-1.1,0.6-2.3,0.9-3.6,0.9c-3.2,0-5-1.8-5-4.9c0-3,1.9-5,4.8-5c2.8,0,4.4,1.8,4.4,4.9c0,0.2,0,0.4,0,0.8l0,0.2H72.9z"/>	<rect x="80.2" y="32.7" width="3" height="13.8"/>	<rect x="84.6" y="32.7" width="3" height="13.8"/>	<path d="M96.5,42.4c-2,0.2-2.6,0.5-2.6,1.3c0,0.6,0.4,0.9,1.2,0.9c0.4,0,0.9,0,1.4-0.1V42.4z M91.9,37.7c1.3-0.6,2.6-0.9,4-0.9		c1.5,0,2.5,0.4,3,1.2c0.3,0.4,0.3,1,0.3,2.3v6.1c-1.3,0.2-3,0.3-4.3,0.3c-2.5,0-3.6-0.9-3.6-2.8c0-2.1,1.5-3.1,5.2-3.4v-0.7		c0-0.5-0.3-0.7-1-0.7c-1.1,0-2.3,0.3-3.5,0.9V37.7z"/>	<path d="M100.4,37.4c1.6-0.4,2.9-0.6,4.2-0.6c1.2,0,2,0.2,2.8,0.7c1.2-0.5,2.2-0.7,3.4-0.7c1.3,0,2.3,0.3,2.9,0.9		c0.6,0.6,0.9,1.3,0.9,2.7v6.1h-3v-5.9c0-1-0.4-1.4-1.3-1.4c-0.5,0-0.9,0.1-1.3,0.3c0.1,0.3,0.1,0.5,0.1,1v6h-3v-5.9		c0-1-0.4-1.4-1.4-1.4c-0.4,0-0.8,0.1-1.3,0.2v7.1h-3V37.4z"/>	<path d="M118.2,42.7c1.5,1,2.5,1.4,3.9,1.4c1.3,0,2.1-0.5,2.1-1.3c0-0.8-0.3-1.1-2.3-2.1c-1.6-0.8-2.2-1.2-2.7-1.8		c-0.6-0.6-0.8-1.4-0.8-2.3c0-2.5,2-4.1,5.1-4.1c1.4,0,2.6,0.3,3.8,0.9v2.9c-1.2-0.8-2.2-1.2-3.5-1.2c-1.4,0-2.2,0.5-2.2,1.3		c0,0.5,0.4,0.9,1.2,1.3l1.1,0.6c1.4,0.6,2,1.1,2.6,1.6c0.7,0.7,1.1,1.6,1.1,2.7c0,2.6-2,4.1-5.3,4.1c-1.5,0-2.8-0.3-4.1-0.9V42.7z"		/>	<path d="M134.9,40.5c-0.1-1.1-0.7-1.7-1.6-1.7c-1,0-1.7,0.6-1.9,1.7H134.9z M131.4,42.6c0.1,1.2,1,1.8,2.6,1.8		c1.2,0,2.3-0.3,3.2-0.9v2.3c-1.1,0.6-2.3,0.9-3.6,0.9c-3.2,0-5-1.8-5-4.9c0-3,1.9-5,4.8-5c2.8,0,4.4,1.8,4.4,4.9c0,0.2,0,0.4,0,0.8		l0,0.2H131.4z"/>	<path d="M145,40.5c-0.1-1.1-0.7-1.7-1.6-1.7c-1,0-1.7,0.6-1.9,1.7H145z M141.5,42.6c0.1,1.2,1,1.8,2.6,1.8c1.2,0,2.3-0.3,3.2-0.9		v2.3c-1.1,0.6-2.3,0.9-3.6,0.9c-3.2,0-5-1.8-5-4.9c0-3,1.9-5,4.8-5c2.8,0,4.4,1.8,4.4,4.9c0,0.2,0,0.4,0,0.8l0,0.2H141.5z"/>	<path d="M58.1,48.9h3.2v6.3l0.3-0.3c0.9-1.2,1.8-2.2,2.6-3.4c0.7-1,1.1-1.6,1.9-2.7h3.6c-0.9,1.4-1.6,2.2-2.7,3.7		c-0.9,1.2-1.4,1.8-2.2,2.7l0.3,0.5c1.8,2.8,3.5,5.1,5,6.9H66c-0.6-0.8-1.1-1.5-1.9-2.6c-0.7-1.1-1.6-2.4-2.5-4l-0.3-0.5v7.1h-3.2		V48.9z"/>	<path d="M75.2,58.7c-2,0.2-2.6,0.5-2.6,1.3c0,0.6,0.4,0.9,1.2,0.9c0.4,0,0.9,0,1.4-0.1V58.7z M70.6,53.9c1.3-0.6,2.6-0.9,4-0.9		c1.5,0,2.5,0.4,3,1.2c0.3,0.4,0.3,1,0.3,2.3v6.1c-1.3,0.2-3,0.3-4.3,0.3c-2.5,0-3.6-0.9-3.6-2.8c0-2.1,1.5-3.1,5.2-3.4v-0.7		c0-0.5-0.3-0.7-1-0.7c-1.1,0-2.3,0.3-3.5,0.9V53.9z"/>	<path d="M82.1,60.3c0.4,0.1,0.6,0.1,0.9,0.1c1.6,0,2.4-0.9,2.4-2.5c0-1.6-0.8-2.5-2.3-2.5c-0.3,0-0.6,0-1,0.1V60.3z M79.1,53.5		c1.5-0.3,2.7-0.4,3.9-0.4c3.6,0,5.5,1.7,5.5,4.9c0,3-2,4.9-5.1,4.9c-0.5,0-0.9,0-1.3-0.1v4.9h-3V53.5z"/>	<path d="M89.5,53.9C91,53.3,92.6,53,94,53c0.8,0,1.4,0.1,2.1,0.3v2.5c-0.5-0.2-1.1-0.3-1.8-0.3c-0.7,0-1.3,0.1-1.9,0.3v6.9h-3V53.9		z"/>	<path d="M100.2,53.2v5.5c0,1.2,0.3,1.6,1.5,1.6c0.4,0,0.8-0.1,1.2-0.1v-6.9h3v9.1l-0.4,0.1c-1.6,0.3-2.8,0.4-4,0.4		c-1.6,0-2.7-0.3-3.4-0.9c-0.7-0.7-1-1.5-1-3.2v-5.4H100.2z"/>	<path d="M107.1,53.7c1.8-0.5,3.2-0.7,4.7-0.7c1.5,0,2.6,0.4,3.3,1c0.6,0.6,0.8,1.3,0.8,2.8v5.9h-3V57c0-1.1-0.4-1.6-1.5-1.6		c-0.4,0-0.8,0-1.4,0.2v7.1h-3V53.7z"/>	<g>		<path class="st25" d="M24.6,54c0.1,0.1,0.3,0.1,0.5,0.2C24.9,54.1,24.8,54.1,24.6,54z"/>		<path class="st25" d="M24.4,54C24.4,54,24.4,54,24.4,54C24.4,54,24.4,54,24.4,54z"/>		<path class="st25" d="M25.2,54.2C25.2,54.2,25.1,54.2,25.2,54.2C25.1,54.2,25.2,54.2,25.2,54.2L25.2,54.2z"/>		<path class="st25" d="M22.3,32.7v30h30v-30H22.3z M50.8,49l0,1.2l0,3.6l0,0l0,0l0,0.2c0,0,0,0,0,0l0,0l0,1.2l0,6H23.7l0-7.4l0,0			c0,0,0,0,0,0c0,0,0,0,0,0V34.2h27.1V49L50.8,49z"/>		<path class="st25" d="M24.2,53.9C24.2,53.9,24.2,53.9,24.2,53.9C24.2,53.9,24.2,53.9,24.2,53.9z"/>		<path class="st25" d="M24,53.9C24,53.9,24,53.9,24,53.9C24,53.9,24,53.9,24,53.9z"/>	</g>	<path d="M26.4,54.2c1.4,0,1.8-0.5,2.7-0.5c1,0,1.3,0.5,2.7,0.5c1.4,0,1.8-0.5,2.7-0.5c1,0,1.3,0.5,2.7,0.5c1.4,0,1.7-0.5,2.7-0.5		c1,0,1.3,0.5,2.7,0.5c1.4,0,1.8-0.5,2.7-0.5c1,0,1.3,0.5,2.7,0.5c1.4,0,1.7-0.5,2.7-0.5l0,0.1c0,0,0,0,0,0l0,0h0l0-19.6H23.7v19.5		C24.6,53.7,25,54.2,26.4,54.2z"/>	<g>		<path class="st25" d="M34.3,53.7c0.1,0,0.2,0,0.3,0c1,0,1.3,0.5,2.7,0.5c1.4,0,1.7-0.5,2.7-0.5c1,0,1.3,0.5,2.7,0.5			c1.4,0,1.8-0.5,2.7-0.5c1,0,1.3,0.5,2.7,0.5c1.4,0,1.7-0.5,2.7-0.5l0-4.6l-9.3-8.9L39.7,42l-4.8-5.1c0,0-1.8,4.1-1.6,6.5			C33.7,46.2,38,42.4,34.3,53.7z"/>		<polygon class="st25" points="50.8,53.8 50.8,53.7 50.8,53.8 		"/>	</g>	<path class="st25" d="M29.1,53.7c0.9,0,1.3,0.5,2.6,0.5c4.4-10.5,2-7.6,1-10.2c-0.7-1.9,2-7.2,2-7.2l-11,12.3l0,4.6		c0.9,0,1.2,0.5,2.6,0.5C27.8,54.2,28.1,53.7,29.1,53.7z"/>	<path class="st34" d="M31.8,54.2c1.4,0,1.8-0.5,2.7-0.5c1,0,1.3,0.5,2.7,0.5c1.4,0,1.7-0.5,2.7-0.5c1,0,1.3,0.5,2.7,0.5		c1.4,0,1.8-0.5,2.7-0.5c1,0,1.3,0.5,2.7,0.5c1.4,0,1.7-0.5,2.7-0.5l0,0.1c0,0,0,0,0,0V47c-8.1-4.2-18.2,3.1-22.7,6.9		c0.3-0.1,0.6-0.2,1-0.2C30,53.7,30.4,54.2,31.8,54.2z"/>	<path d="M50.8,61.1l0-5.9l0-1.4c0,0,0,0,0,0l0-0.1c-1,0-1.3,0.5-2.7,0.5c-1.4,0-1.8-0.5-2.7-0.5c-1,0-1.3,0.5-2.7,0.5		c-1.4,0-1.8-0.5-2.7-0.5c-1,0-1.3,0.5-2.7,0.5c-1.4,0-1.7-0.5-2.7-0.5c-1,0-1.3,0.5-2.7,0.5c-1.4,0-1.8-0.5-2.7-0.5		c-1,0-1.3,0.5-2.7,0.5c-1.4,0-1.7-0.5-2.6-0.5l0,0l0,0.1l0,0l0,7.4h27.1V61.1L50.8,61.1z"/></g></svg>