<?xml version="1.0" encoding="utf-8"?>
<!-- Generator: Adobe Illustrator 26.5.0, SVG Export Plug-In . SVG Version: 6.00 Build 0)  -->
<svg version="1.1" id="Ebene_1" xmlns="http://www.w3.org/2000/svg" xmlns:xlink="http://www.w3.org/1999/xlink" x="0px" y="0px"
	 viewBox="0 0 35 35" style="enable-background:new 0 0 35 35;" xml:space="preserve">
<style type="text/css">
	.st0{fill:#FFCE00;}
	.st1{fill:#FFFFFF;}
</style>
<polygon class="st0" points="25.8,3 9.2,3 0.8,17.5 9.2,32 25.8,32 34.2,17.5 "/>
<g>
	<path class="st1" d="M16,15.7h0.6c0.3,0,0.7,0,1-0.1s0.7-0.2,0.9-0.3c0.3-0.2,0.5-0.4,0.7-0.6c0.2-0.3,0.3-0.6,0.3-1
		c0-0.3-0.1-0.6-0.2-0.8c-0.1-0.2-0.3-0.5-0.5-0.6c-0.2-0.2-0.4-0.3-0.7-0.4s-0.5-0.1-0.8-0.1c-0.6,0-1,0.2-1.4,0.5
		c-0.4,0.3-0.6,0.8-0.8,1.3L13,12.9c0.1-0.5,0.3-0.9,0.6-1.3c0.3-0.4,0.6-0.7,1-1c0.4-0.3,0.8-0.5,1.3-0.6c0.5-0.2,1-0.2,1.6-0.2
		c0.6,0,1.2,0.1,1.7,0.2c0.5,0.2,1,0.4,1.4,0.7s0.7,0.7,0.9,1.2c0.2,0.5,0.4,1,0.4,1.6c0,0.7-0.2,1.4-0.7,2s-1,1-1.8,1.1v0
		c0.8,0.2,1.5,0.5,2.1,1.1c0.5,0.6,0.8,1.3,0.8,2.2c0,0.7-0.1,1.3-0.4,1.9c-0.3,0.5-0.6,1-1.1,1.3s-1,0.6-1.5,0.8
		c-0.6,0.2-1.1,0.3-1.7,0.3c-0.6,0-1.1-0.1-1.7-0.2c-0.5-0.1-1-0.3-1.4-0.6c-0.4-0.3-0.8-0.6-1.1-1c-0.3-0.4-0.6-0.9-0.8-1.5
		l2.2-0.7c0.2,0.5,0.5,1,0.9,1.4c0.5,0.4,1.1,0.6,1.8,0.6c0.3,0,0.6,0,0.9-0.1c0.3-0.1,0.6-0.2,0.8-0.4s0.4-0.4,0.6-0.7
		c0.1-0.3,0.2-0.6,0.2-1c0-0.4-0.1-0.8-0.3-1.1c-0.2-0.3-0.5-0.5-0.8-0.7c-0.3-0.2-0.7-0.3-1.1-0.4c-0.4-0.1-0.8-0.1-1.1-0.1H16
		L16,15.7L16,15.7z"/>
	<path class="st1" d="M22.9,22.6c0-0.4,0.1-0.7,0.4-0.9c0.3-0.3,0.6-0.4,0.9-0.4c0.4,0,0.7,0.1,0.9,0.4c0.3,0.2,0.4,0.5,0.4,0.9
		s-0.1,0.7-0.4,0.9c-0.3,0.3-0.6,0.4-0.9,0.4c-0.2,0-0.3,0-0.5-0.1c-0.2-0.1-0.3-0.2-0.4-0.3c-0.1-0.1-0.2-0.2-0.3-0.4
		C22.9,23,22.9,22.8,22.9,22.6z"/>
</g>
</svg>
